#!OML:ASF X:\für Bonn\!DataBase\2005_08_10_Bjorn_Final\c3d\bjorn.ASF
:FULLY-SPECIFIED
:DEGREES
46
root 2.37353 19.0886 1.54922 -191.912 -7.59671 174.793
lowerback 14.5135 2.83426 3.75139
upperback 14.5663 1.35851 -2.37493
thorax 7.81364 -0.014927 -4.91209
lowerneck -9.47271 -1.49298 0.0414468
upperneck 10.5395 -2.04953 -0.335559
head 4.70947 -1.05337 -0.25156
rclavicle -3.79679e-014 3.93594e-014
rhumerus -17.6841 -9.50676 -79.3324
rradius 33.5791
rwrist 3.90761
rhand -13.9887 17.658
rfingers 7.12502
rthumb 12.14 -11.9697
lclavicle -3.79679e-014 3.93594e-014
lhumerus -31.8749 -46.0442 84.2693
lradius 48.4966
lwrist 0.0150853
lhand -45.1633 -21.8978
lfingers 7.12502
lthumb -17.9407 7.29471
rfemur 0.281593 -5.19859 11.794
rtibia 31.436
rfoot -13.3013 19.8385
rtoes -7.59058
lfemur -44.9978 37.7096 1.64694
ltibia 148.663
lfoot -22.4218 -31.1803
ltoes -30.3905
47
root 2.37613 18.9946 1.52191 -193.622 -7.01881 174.684
lowerback 15.5484 3.10462 3.68176
upperback 15.0109 1.49999 -2.28442
thorax 7.79096 -0.0468602 -4.819
lowerneck -9.23209 -1.37137 0.372106
upperneck 10.6542 -1.9087 -0.607804
head 4.69894 -0.991679 -0.378679
rclavicle 2.68359e-014 -4.79071e-014
rhumerus -16.5385 -8.87788 -79.0535
rradius 33.4291
rwrist 3.80265
rhand -14.2105 17.7816
rfingers 7.12502
rthumb 11.9261 -11.8588
lclavicle 2.68359e-014 -4.79071e-014
lhumerus -31.4134 -46.8313 83.3398
lradius 48.8378
lwrist 0.204456
lhand -45.4825 -22.2339
lfingers 7.12502
lthumb -18.2479 6.93016
rfemur 1.96025 -4.72868 11.6133
rtibia 31.7975
rfoot -13.7172 20.0931
rtoes -7.95121
lfemur -48.754 41.5258 0.315124
ltibia 148.461
lfoot -22.8362 -30.8885
ltoes -30.4625
48
root 2.3785 18.9582 1.48518 -195.296 -6.46057 174.576
lowerback 16.5509 3.37131 3.62793
upperback 15.4413 1.63164 -2.19959
thorax 7.77698 -0.0844221 -4.74263
lowerneck -8.89419 -1.2522 0.786559
upperneck 10.6288 -1.7697 -0.951983
head 4.62832 -0.930854 -0.540181
rclavicle -3.58309e-014 2.32578e-014
rhumerus -15.5543 -8.28294 -78.7884
rradius 33.5971
rwrist 3.82317
rhand -14.423 17.8921
rfingers 7.12502
rthumb 11.7212 -11.76
lclavicle -3.58309e-014 2.32578e-014
lhumerus -30.8447 -47.6218 82.2567
lradius 49.2534
lwrist 0.239137
lhand -45.7683 -22.213
lfingers 7.12502
lthumb -18.5228 6.92516
rfemur 3.73991 -4.19449 11.4963
rtibia 32.039
rfoot -14.2024 20.1934
rtoes -8.46309
lfemur -56.8693 36.7334 -7.80774
ltibia 147.537
lfoot -20.5378 -27.412
ltoes -30.1413
49
root 2.38205 18.9164 1.44577 -196.889 -5.923 174.461
lowerback 17.4449 3.63376 3.54505
upperback 15.8827 1.74318 -2.09536
thorax 7.83508 -0.137774 -4.62857
lowerneck -8.54072 -1.13095 1.20705
upperneck 10.418 -1.61245 -1.37039
head 4.49871 -0.862688 -0.723069
rclavicle -3.93097e-014 6.75868e-015
rhumerus -14.5883 -7.63353 -78.4994
rradius 33.9937
rwrist 3.78796
rhand -14.4951 17.9882
rfingers 7.12502
rthumb 11.6517 -11.6678
lclavicle -3.93097e-014 6.75868e-015
lhumerus -30.0742 -48.327 81.0401
lradius 49.6475
lwrist 0.343907
lhand -46.0316 -22.1942
lfingers 7.12502
lthumb -18.7761 6.91959
rfemur 5.41684 -3.66216 11.4199
rtibia 32.298
rfoot -14.7529 20.2063
rtoes -9.11386
lfemur -63.2206 32.2752 -13.5295
ltibia 146.031
lfoot -18.5972 -24.4305
ltoes -28.5254
50
root 2.38649 18.8678 1.40342 -198.429 -5.36481 174.334
lowerback 18.2666 3.90337 3.45377
upperback 16.312 1.85837 -1.99789
thorax 7.92334 -0.191083 -4.51836
lowerneck -8.11629 -1.0056 1.67221
upperneck 9.69558 -1.45852 -1.75066
head 4.66693 -0.782711 -0.996498
rclavicle 6.6245e-014 -5.28767e-014
rhumerus -13.6058 -6.91191 -78.2202
rradius 34.4474
rwrist 3.75602
rhand -14.5171 18.0473
rfingers 7.12502
rthumb 11.6305 -11.61
lclavicle 6.6245e-014 -5.28767e-014
lhumerus -29.296 -49.0099 79.7537
lradius 50.111
lwrist 0.947045
lhand -46.2598 -22.6448
lfingers 7.12502
lthumb -18.9956 6.44767
rfemur 7.0972 -3.10599 11.3768
rtibia 32.4156
rfoot -15.207 20.1579
rtoes -9.72038
lfemur -68.2913 28.7244 -17.371
ltibia 144.111
lfoot -17.3638 -22.1415
ltoes -28.113
51
root 2.39098 18.8197 1.35741 -199.888 -4.78644 174.179
lowerback 19.0099 4.17511 3.31254
upperback 16.7055 1.97562 -1.88182
thorax 8.00966 -0.247786 -4.35913
lowerneck -7.54718 -0.86474 2.09816
upperneck 9.22833 -1.26224 -2.21904
head 4.38168 -0.692826 -1.20662
rclavicle 2.73329e-014 -1.98785e-014
rhumerus -12.6007 -6.11833 -77.8769
rradius 34.9808
rwrist 3.87033
rhand -14.3478 17.8725
rfingers 7.12502
rthumb 11.7937 -11.7755
lclavicle 2.73329e-014 -1.98785e-014
lhumerus -28.5869 -49.6568 78.4707
lradius 50.6967
lwrist 1.88766
lhand -46.5378 -23.34
lfingers 7.12502
lthumb -19.2629 5.726
rfemur 8.61244 -2.53914 11.3468
rtibia 32.6903
rfoot -15.7461 20.1247
rtoes -10.404
lfemur -72.6958 26.0057 -20.0438
ltibia 141.933
lfoot -16.7114 -20.4386
ltoes -28.9555
52
root 2.39566 18.7619 1.30821 -201.214 -4.21056 174.013
lowerback 19.601 4.43678 3.15075
upperback 17.0612 2.09157 -1.76737
thorax 8.13056 -0.300295 -4.18723
lowerneck -7.07857 -0.725649 2.51975
upperneck 8.9816 -1.06684 -2.74721
head 4.20245 -0.607603 -1.44082
rclavicle 0 -1.90833e-014
rhumerus -11.5325 -5.20137 -77.4978
rradius 35.5387
rwrist 4.04681
rhand -14.1761 17.5984
rfingers 7.12502
rthumb 11.9593 -12.04
lclavicle 0 -1.90833e-014
lhumerus -27.8734 -50.2087 77.0892
lradius 51.4077
lwrist 2.83934
lhand -46.7644 -23.9059
lfingers 7.12502
lthumb -19.4808 5.1382
rfemur 9.95081 -1.99573 11.3343
rtibia 33.0143
rfoot -16.2662 20.1071
rtoes -10.9148
lfemur -76.495 23.8634 -21.968
ltibia 139.345
lfoot -15.7971 -18.8623
ltoes -28.2945
53
root 2.39991 18.6989 1.25265 -202.416 -3.6113 173.766
lowerback 20.0424 4.70574 2.87105
upperback 17.3879 2.21299 -1.64975
thorax 8.28458 -0.357527 -3.94365
lowerneck -6.62301 -0.533708 2.73388
upperneck 8.7888 -0.797247 -3.0742
head 4.05164 -0.482415 -1.56657
rclavicle 7.15625e-015 1.98785e-014
rhumerus -10.4403 -4.15268 -77.0499
rradius 36.1922
rwrist 4.24771
rhand -13.9716 17.3158
rfingers 7.12502
rthumb 12.1565 -12.3109
lclavicle 7.15625e-015 1.98785e-014
lhumerus -27.2261 -50.6234 75.7045
lradius 52.2574
lwrist 3.76482
lhand -47.1 -24.1653
lfingers 7.12502
lthumb -19.8034 4.84584
rfemur 11.1943 -1.44505 11.2614
rtibia 33.2594
rfoot -16.7218 20.1412
rtoes -11.3218
lfemur -80.0115 22.131 -23.5466
ltibia 136.316
lfoot -14.9471 -17.071
ltoes -27.6804
54
root 2.40452 18.6621 1.19412 -203.506 -3.03792 173.407
lowerback 20.3655 4.97897 2.46935
upperback 17.6726 2.34227 -1.55992
thorax 8.43947 -0.415505 -3.66022
lowerneck -6.13663 -0.344255 2.9696
upperneck 8.67174 -0.526617 -3.4945
head 3.92535 -0.360796 -1.72977
rclavicle 2.5842e-014 -1.21259e-014
rhumerus -9.38081 -3.05125 -76.5674
rradius 36.9077
rwrist 4.48982
rhand -13.8135 17.1863
rfingers 7.12502
rthumb 12.309 -12.4314
lclavicle 2.5842e-014 -1.21259e-014
lhumerus -26.6517 -50.9476 74.2953
lradius 53.3206
lwrist 4.89171
lhand -47.385 -24.2481
lfingers 7.12502
lthumb -20.0774 4.73452
rfemur 12.3756 -0.877368 11.0889
rtibia 33.413
rfoot -17.0254 20.2602
rtoes -11.2216
lfemur -82.9552 20.5892 -24.8975
ltibia 132.639
lfoot -14.1338 -14.8624
ltoes -27.2453
55
root 2.41036 18.6488 1.13679 -204.526 -2.44721 173.072
lowerback 20.5843 5.23322 2.06964
upperback 17.9227 2.46324 -1.45312
thorax 8.60304 -0.472906 -3.35563
lowerneck -5.56127 -0.128439 3.14168
upperneck 8.498 -0.214668 -3.90758
head 3.76624 -0.21882 -1.87611
rclavicle -1.2921e-015 -1.37161e-014
rhumerus -8.38078 -1.83362 -76.0316
rradius 37.7599
rwrist 4.69008
rhand -13.6279 17.0304
rfingers 7.12502
rthumb 12.4879 -12.5765
lclavicle -1.2921e-015 -1.37161e-014
lhumerus -26.1755 -51.0967 72.9107
lradius 54.5829
lwrist 6.31571
lhand -47.5564 -24.1776
lfingers 7.12502
lthumb -20.2421 4.78762
rfemur 13.5085 -0.347581 10.9613
rtibia 33.4793
rfoot -17.2326 20.4101
rtoes -10.8711
lfemur -85.1643 19.5552 -25.8568
ltibia 128.476
lfoot -13.4908 -12.6343
ltoes -26.4828
56
root 2.41646 18.6212 1.07784 -205.474 -1.84962 172.823
lowerback 20.695 5.44948 1.74626
upperback 18.1386 2.56617 -1.31384
thorax 8.78223 -0.525376 -3.05233
lowerneck -4.87153 0.0944619 3.25213
upperneck 8.23444 0.111722 -4.32323
head 3.5574 -0.0690151 -2.01031
rclavicle 3.43897e-014 -4.35338e-014
rhumerus -7.41499 -0.507655 -75.4345
rradius 38.7329
rwrist 4.64392
rhand -13.3028 16.776
rfingers 7.12502
rthumb 12.8013 -12.8115
lclavicle 3.43897e-014 -4.35338e-014
lhumerus -25.8666 -51.0067 71.6191
lradius 56.0142
lwrist 7.84917
lhand -47.6983 -23.8472
lfingers 7.12502
lthumb -20.3785 5.10359
rfemur 14.5479 0.194664 10.9685
rtibia 33.5535
rfoot -17.3618 20.5691
rtoes -10.1881
lfemur -87.0124 18.999 -26.5874
ltibia 124.019
lfoot -13.1957 -10.4734
ltoes -26.6431
57
root 2.42273 18.5814 1.01696 -206.335 -1.29086 172.667
lowerback 20.5955 -0.871581 -0.931744
upperback 17.9554 4.45636 -2.85086
thorax 8.69542 4.74474 -2.78904
lowerneck -4.11367 0.333565 3.34171
upperneck 7.99395 0.458663 -4.7484
head 3.34879 0.091385 -2.14498
rclavicle 2.18663e-015 -1.31198e-014
rhumerus -6.5314 0.948789 -74.8001
rradius 39.8681
rwrist 4.26433
rhand -12.8755 16.5135
rfingers 7.12502
rthumb 13.2132 -13.0478
lclavicle 2.18663e-015 -1.31198e-014
lhumerus -25.8063 -50.6765 70.457
lradius 57.5514
lwrist 9.25793
lhand -47.7697 -23.0481
lfingers 7.12502
lthumb -20.4471 5.89529
rfemur 15.4343 0.684192 11.0951
rtibia 33.7522
rfoot -17.5396 20.7245
rtoes -9.31667
lfemur -88.5056 18.6771 -27.2203
ltibia 119.176
lfoot -13.5046 -8.16102
ltoes -28.7629
58
root 2.43032 18.529 0.954593 -207.122 -0.789676 172.595
lowerback 20.4794 -0.862139 -1.12601
upperback 18.1082 4.45721 -2.73061
thorax 8.92132 4.72421 -2.5272
lowerneck -3.36649 0.596315 3.37751
upperneck 7.78812 0.836445 -5.17571
head 3.15955 0.266329 -2.27265
rclavicle -5.36719e-015 2.50469e-014
rhumerus -5.65081 2.58898 -74.1246
rradius 41.1771
rwrist 3.50427
rhand -12.5561 16.3204
rfingers 7.12502
rthumb 13.5211 -13.2207
lclavicle -5.36719e-015 2.50469e-014
lhumerus -25.9315 -50.0162 69.4246
lradius 59.09
lwrist 10.3298
lhand -47.8957 -21.8756
lfingers 7.12502
lthumb -20.5682 7.05476
rfemur 16.1957 1.21316 11.3937
rtibia 34.0967
rfoot -17.8273 20.7281
rtoes -8.4133
lfemur -89.5916 18.531 -27.7614
ltibia 113.948
lfoot -13.8794 -5.95115
ltoes -30.0053
